<svg width="400" height="242" viewBox="0 0 400 242" fill="none" xmlns="http://www.w3.org/2000/svg">
<path d="M86.1268 238.18C85.1668 238.18 84.3388 238 83.6428 237.64C82.9468 237.268 82.3468 236.758 81.8428 236.11L82.5088 235.462C82.9768 236.098 83.5048 236.566 84.0928 236.866C84.6928 237.154 85.3828 237.298 86.1628 237.298C87.0028 237.298 87.6868 237.1 88.2148 236.704C88.7428 236.308 89.0068 235.756 89.0068 235.048C89.0068 234.508 88.8928 234.07 88.6648 233.734C88.4368 233.398 88.1308 233.122 87.7468 232.906C87.3748 232.69 86.9608 232.498 86.5048 232.33C86.0608 232.162 85.6108 231.994 85.1548 231.826C84.7108 231.646 84.3028 231.43 83.9308 231.178C83.5588 230.914 83.2528 230.578 83.0128 230.17C82.7848 229.762 82.6708 229.246 82.6708 228.622C82.6708 227.998 82.8208 227.458 83.1208 227.002C83.4328 226.534 83.8528 226.174 84.3808 225.922C84.9208 225.67 85.5388 225.544 86.2348 225.544C87.0268 225.544 87.7348 225.7 88.3588 226.012C88.9828 226.312 89.5048 226.738 89.9248 227.29L89.2588 227.938C88.8628 227.446 88.4188 227.074 87.9268 226.822C87.4468 226.558 86.8768 226.426 86.2168 226.426C85.4488 226.426 84.8248 226.618 84.3448 227.002C83.8768 227.374 83.6428 227.896 83.6428 228.568C83.6428 229.072 83.7568 229.48 83.9848 229.792C84.2128 230.104 84.5128 230.368 84.8848 230.584C85.2688 230.788 85.6828 230.968 86.1268 231.124C86.5828 231.28 87.0328 231.448 87.4768 231.628C87.9208 231.808 88.3288 232.036 88.7008 232.312C89.0848 232.576 89.3908 232.918 89.6188 233.338C89.8468 233.758 89.9608 234.292 89.9608 234.94C89.9608 235.984 89.6128 236.788 88.9168 237.352C88.2328 237.904 87.3028 238.18 86.1268 238.18ZM98.0937 238.18C97.2297 238.18 96.4257 238.018 95.6817 237.694C94.9497 237.37 94.3077 236.92 93.7557 236.344C93.2037 235.756 92.7717 235.078 92.4597 234.31C92.1597 233.542 92.0097 232.72 92.0097 231.844C92.0097 230.956 92.1597 230.134 92.4597 229.378C92.7597 228.61 93.1857 227.938 93.7377 227.362C94.2897 226.786 94.9317 226.342 95.6637 226.03C96.3957 225.706 97.1937 225.544 98.0577 225.544C98.9217 225.544 99.7197 225.706 100.452 226.03C101.196 226.342 101.838 226.786 102.378 227.362C102.93 227.938 103.362 228.61 103.674 229.378C103.986 230.146 104.142 230.974 104.142 231.862C104.142 232.738 103.986 233.56 103.674 234.328C103.374 235.096 102.948 235.768 102.396 236.344C101.844 236.92 101.202 237.37 100.47 237.694C99.7497 238.018 98.9577 238.18 98.0937 238.18ZM98.0577 237.262C99.0417 237.262 99.9117 237.028 100.668 236.56C101.436 236.08 102.042 235.432 102.486 234.616C102.93 233.8 103.152 232.876 103.152 231.844C103.152 231.076 103.02 230.368 102.756 229.72C102.504 229.06 102.15 228.49 101.694 228.01C101.238 227.518 100.698 227.14 100.074 226.876C99.4617 226.6 98.7897 226.462 98.0577 226.462C97.0857 226.462 96.2157 226.696 95.4477 227.164C94.6917 227.632 94.0917 228.274 93.6477 229.09C93.2157 229.894 92.9997 230.812 92.9997 231.844C92.9997 232.612 93.1257 233.326 93.3777 233.986C93.6297 234.646 93.9837 235.222 94.4397 235.714C94.8957 236.206 95.4297 236.59 96.0417 236.866C96.6657 237.13 97.3377 237.262 98.0577 237.262ZM106.877 238V225.724H107.831V238H106.877ZM107.489 238V237.136H114.419V238H107.489ZM115.47 238L120.474 225.724H121.23L126.216 238H125.172L120.654 226.696H121.032L116.478 238H115.47ZM117.648 234.382V233.536H124.038V234.382H117.648ZM129.092 232.366V231.556H132.89C133.79 231.556 134.48 231.328 134.96 230.872C135.44 230.416 135.68 229.81 135.68 229.054C135.68 228.31 135.44 227.71 134.96 227.254C134.492 226.798 133.802 226.57 132.89 226.57H129.092V225.724H132.854C133.646 225.724 134.324 225.868 134.888 226.156C135.452 226.432 135.884 226.822 136.184 227.326C136.484 227.818 136.634 228.394 136.634 229.054C136.634 229.714 136.484 230.296 136.184 230.8C135.884 231.292 135.452 231.676 134.888 231.952C134.324 232.228 133.646 232.366 132.854 232.366H129.092ZM128.516 238V225.724H129.47V238H128.516ZM136.292 238L131.54 232.15L132.494 231.898L137.534 238H136.292ZM147.268 238V226.066H148.204V238H147.268ZM142.768 226.588V225.724H152.704V226.588H142.768ZM155.723 232.366V231.556H159.521C160.421 231.556 161.111 231.328 161.591 230.872C162.071 230.416 162.311 229.81 162.311 229.054C162.311 228.31 162.071 227.71 161.591 227.254C161.123 226.798 160.433 226.57 159.521 226.57H155.723V225.724H159.485C160.277 225.724 160.955 225.868 161.519 226.156C162.083 226.432 162.515 226.822 162.815 227.326C163.115 227.818 163.265 228.394 163.265 229.054C163.265 229.714 163.115 230.296 162.815 230.8C162.515 231.292 162.083 231.676 161.519 231.952C160.955 232.228 160.277 232.366 159.485 232.366H155.723ZM155.147 238V225.724H156.101V238H155.147ZM162.923 238L158.171 232.15L159.125 231.898L164.165 238H162.923ZM165.04 238L170.044 225.724H170.8L175.786 238H174.742L170.224 226.696H170.602L166.048 238H165.04ZM167.218 234.382V233.536H173.608V234.382H167.218ZM178.59 238V237.118H182.406C183.438 237.118 184.344 236.896 185.124 236.452C185.916 235.996 186.534 235.372 186.978 234.58C187.422 233.788 187.644 232.876 187.644 231.844C187.644 230.824 187.422 229.918 186.978 229.126C186.534 228.334 185.916 227.716 185.124 227.272C184.332 226.828 183.426 226.606 182.406 226.606H178.644V225.724H182.424C183.324 225.724 184.152 225.88 184.908 226.192C185.664 226.492 186.318 226.918 186.87 227.47C187.434 228.01 187.866 228.658 188.166 229.414C188.478 230.158 188.634 230.974 188.634 231.862C188.634 232.738 188.478 233.554 188.166 234.31C187.866 235.054 187.44 235.702 186.888 236.254C186.336 236.806 185.682 237.238 184.926 237.55C184.17 237.85 183.348 238 182.46 238H178.59ZM178.086 238V225.724H179.04V238H178.086ZM191.393 238V225.724H192.347V238H191.393ZM195.699 238V225.724H196.383L196.653 226.876V238H195.699ZM204.195 238L196.239 226.984L196.383 225.724L204.357 236.722L204.195 238ZM204.195 238L203.925 236.884V225.724H204.879V238H204.195ZM213.813 238.162C212.925 238.162 212.103 238.006 211.347 237.694C210.591 237.37 209.937 236.926 209.385 236.362C208.833 235.798 208.401 235.132 208.089 234.364C207.789 233.596 207.639 232.762 207.639 231.862C207.639 230.962 207.795 230.128 208.107 229.36C208.419 228.592 208.851 227.92 209.403 227.344C209.967 226.768 210.627 226.324 211.383 226.012C212.139 225.688 212.961 225.526 213.849 225.526C214.845 225.526 215.757 225.724 216.585 226.12C217.413 226.516 218.085 227.086 218.601 227.83L217.935 228.496C217.479 227.836 216.897 227.332 216.189 226.984C215.493 226.624 214.713 226.444 213.849 226.444C212.841 226.444 211.941 226.678 211.149 227.146C210.357 227.614 209.739 228.256 209.295 229.072C208.851 229.888 208.629 230.818 208.629 231.862C208.629 232.906 208.851 233.836 209.295 234.652C209.739 235.468 210.345 236.104 211.113 236.56C211.881 237.016 212.769 237.244 213.777 237.244C214.737 237.244 215.571 237.046 216.279 236.65C216.987 236.254 217.539 235.678 217.935 234.922C218.331 234.154 218.529 233.242 218.529 232.186L219.015 232.546H213.597V231.682H219.519V231.844C219.519 233.188 219.279 234.334 218.799 235.282C218.331 236.218 217.665 236.932 216.801 237.424C215.949 237.916 214.953 238.162 213.813 238.162ZM226.756 232.924V232.078H230.644C231.208 232.078 231.706 231.97 232.138 231.754C232.57 231.526 232.912 231.208 233.164 230.8C233.416 230.38 233.542 229.888 233.542 229.324C233.542 228.76 233.416 228.274 233.164 227.866C232.912 227.446 232.57 227.128 232.138 226.912C231.706 226.684 231.208 226.57 230.644 226.57H226.756V225.724H230.752C231.472 225.724 232.108 225.874 232.66 226.174C233.224 226.462 233.668 226.876 233.992 227.416C234.328 227.956 234.496 228.592 234.496 229.324C234.496 230.056 234.328 230.692 233.992 231.232C233.668 231.76 233.224 232.174 232.66 232.474C232.108 232.774 231.472 232.924 230.752 232.924H226.756ZM226.18 238V225.724H227.134V238H226.18ZM236.99 238V225.724H237.944V238H236.99ZM237.602 238V237.136H244.532V238H237.602ZM245.583 238L250.587 225.724H251.343L256.329 238H255.285L250.767 226.696H251.145L246.591 238H245.583ZM247.761 234.382V233.536H254.151V234.382H247.761ZM260.366 238V226.066H261.302V238H260.366ZM255.866 226.588V225.724H265.802V226.588H255.866ZM268.244 238V225.724H269.198V238H268.244ZM268.856 232.312V231.448H275.588V232.312H268.856ZM268.856 226.588V225.724H275.894V226.588H268.856ZM283.666 238.18C282.802 238.18 281.998 238.018 281.254 237.694C280.522 237.37 279.88 236.92 279.328 236.344C278.776 235.756 278.344 235.078 278.032 234.31C277.732 233.542 277.582 232.72 277.582 231.844C277.582 230.956 277.732 230.134 278.032 229.378C278.332 228.61 278.758 227.938 279.31 227.362C279.862 226.786 280.504 226.342 281.236 226.03C281.968 225.706 282.766 225.544 283.63 225.544C284.494 225.544 285.292 225.706 286.024 226.03C286.768 226.342 287.41 226.786 287.95 227.362C288.502 227.938 288.934 228.61 289.246 229.378C289.558 230.146 289.714 230.974 289.714 231.862C289.714 232.738 289.558 233.56 289.246 234.328C288.946 235.096 288.52 235.768 287.968 236.344C287.416 236.92 286.774 237.37 286.042 237.694C285.322 238.018 284.53 238.18 283.666 238.18ZM283.63 237.262C284.614 237.262 285.484 237.028 286.24 236.56C287.008 236.08 287.614 235.432 288.058 234.616C288.502 233.8 288.724 232.876 288.724 231.844C288.724 231.076 288.592 230.368 288.328 229.72C288.076 229.06 287.722 228.49 287.266 228.01C286.81 227.518 286.27 227.14 285.646 226.876C285.034 226.6 284.362 226.462 283.63 226.462C282.658 226.462 281.788 226.696 281.02 227.164C280.264 227.632 279.664 228.274 279.22 229.09C278.788 229.894 278.572 230.812 278.572 231.844C278.572 232.612 278.698 233.326 278.95 233.986C279.202 234.646 279.556 235.222 280.012 235.714C280.468 236.206 281.002 236.59 281.614 236.866C282.238 237.13 282.91 237.262 283.63 237.262ZM293.025 232.366V231.556H296.823C297.723 231.556 298.413 231.328 298.893 230.872C299.373 230.416 299.613 229.81 299.613 229.054C299.613 228.31 299.373 227.71 298.893 227.254C298.425 226.798 297.735 226.57 296.823 226.57H293.025V225.724H296.787C297.579 225.724 298.257 225.868 298.821 226.156C299.385 226.432 299.817 226.822 300.117 227.326C300.417 227.818 300.567 228.394 300.567 229.054C300.567 229.714 300.417 230.296 300.117 230.8C299.817 231.292 299.385 231.676 298.821 231.952C298.257 232.228 297.579 232.366 296.787 232.366H293.025ZM292.449 238V225.724H293.403V238H292.449ZM300.225 238L295.473 232.15L296.427 231.898L301.467 238H300.225ZM303.629 238V225.724H304.313L309.713 234.58H309.191L314.591 225.724H315.275V238H314.321V227.362L314.555 227.416L309.803 235.21H309.119L304.367 227.416L304.583 227.362V238H303.629Z" fill="white"/>
<path d="M56.2591 208C54.7897 208 53.7511 207.696 53.1431 207.088C52.5857 206.48 52.3071 205.517 52.3071 204.2V160.12C52.3071 158.803 52.6111 157.84 53.2191 157.232C53.8271 156.624 54.8657 156.32 56.3351 156.32H63.5551C64.5684 156.32 65.3537 156.447 65.9111 156.7C66.5191 156.953 66.9751 157.46 67.2791 158.22L78.2991 184.82L89.3951 158.22C89.6991 157.46 90.1297 156.953 90.6871 156.7C91.2951 156.447 92.1057 156.32 93.1191 156.32H100.339C101.808 156.32 102.847 156.624 103.455 157.232C104.063 157.84 104.367 158.803 104.367 160.12V204.2C104.367 205.517 104.063 206.48 103.455 207.088C102.898 207.696 101.884 208 100.415 208H94.4111C92.9417 208 91.9031 207.696 91.2951 207.088C90.6871 206.48 90.3831 205.517 90.3831 204.2V179.5L83.0111 195.992C82.5044 197.259 81.9471 198.171 81.3391 198.728C80.7311 199.235 79.7177 199.488 78.2991 199.488C76.9311 199.488 75.9431 199.235 75.3351 198.728C74.7271 198.171 74.1444 197.259 73.5871 195.992L66.2911 179.5V204.2C66.2911 205.517 65.9871 206.48 65.3791 207.088C64.7711 207.696 63.7324 208 62.2631 208H56.2591ZM109.086 208C108.022 208 107.49 207.544 107.49 206.632C107.49 206.227 107.617 205.72 107.87 205.112L127.174 158.904C127.58 157.941 128.01 157.283 128.466 156.928C128.973 156.523 129.708 156.32 130.67 156.32H137.586C138.549 156.32 139.258 156.523 139.714 156.928C140.221 157.283 140.677 157.941 141.082 158.904L160.386 205.112C160.64 205.72 160.766 206.201 160.766 206.556C160.766 207.012 160.614 207.367 160.31 207.62C160.057 207.873 159.677 208 159.17 208H147.39C146.681 208 146.124 207.873 145.718 207.62C145.313 207.316 144.984 206.835 144.73 206.176L142.07 198.88H126.11L123.526 206.176C123.273 206.835 122.944 207.316 122.538 207.62C122.133 207.873 121.55 208 120.79 208H109.086ZM138.726 188.544L134.09 175.624L129.454 188.544H138.726ZM169.74 208C168.27 208 167.232 207.696 166.624 207.088C166.066 206.48 165.788 205.517 165.788 204.2V160.196C165.788 158.879 166.092 157.916 166.7 157.308C167.308 156.649 168.321 156.32 169.74 156.32H188.436C195.478 156.32 200.672 157.789 204.016 160.728C207.36 163.667 209.032 168.049 209.032 173.876C209.032 181.121 206.245 186.112 200.672 188.848L208.196 205.188C208.398 205.593 208.5 205.999 208.5 206.404C208.5 206.86 208.322 207.24 207.968 207.544C207.664 207.848 207.233 208 206.676 208H196.036C195.276 208 194.668 207.899 194.212 207.696C193.806 207.493 193.502 207.113 193.3 206.556L186.992 191.128H181.14V204.2C181.14 205.517 180.836 206.48 180.228 207.088C179.62 207.696 178.581 208 177.112 208H169.74ZM186.764 180.26C191.374 180.26 193.68 178.132 193.68 173.876C193.68 169.569 191.501 167.416 187.144 167.416H181.14V180.26H186.764ZM259.706 205.112C260.06 205.517 260.238 205.999 260.238 206.556C260.238 207.012 260.086 207.367 259.782 207.62C259.528 207.873 259.148 208 258.642 208H246.862C246.152 208 245.62 207.949 245.266 207.848C244.911 207.696 244.582 207.417 244.278 207.012L229.382 185.58V204.2C229.382 205.517 229.078 206.48 228.47 207.088C227.862 207.696 226.823 208 225.354 208H217.982C216.512 208 215.474 207.696 214.866 207.088C214.308 206.48 214.03 205.517 214.03 204.2V160.196C214.03 158.879 214.334 157.916 214.942 157.308C215.55 156.649 216.563 156.32 217.982 156.32H225.354C226.823 156.32 227.862 156.649 228.47 157.308C229.078 157.916 229.382 158.879 229.382 160.196V178.436L243.67 157.384C243.923 156.979 244.227 156.7 244.582 156.548C244.987 156.396 245.57 156.32 246.33 156.32H258.034C258.54 156.32 258.92 156.447 259.174 156.7C259.478 156.953 259.63 157.308 259.63 157.764C259.63 158.321 259.452 158.803 259.098 159.208L242.834 181.932L259.706 205.112ZM268.079 208C266.61 208 265.571 207.696 264.963 207.088C264.406 206.48 264.127 205.517 264.127 204.2V160.196C264.127 158.879 264.431 157.916 265.039 157.308C265.647 156.649 266.661 156.32 268.079 156.32H299.619C301.038 156.32 302.001 156.624 302.507 157.232C303.014 157.789 303.267 158.752 303.267 160.12V163.616C303.267 164.984 303.014 165.972 302.507 166.58C302.001 167.137 301.038 167.416 299.619 167.416H279.479V176.688H292.779C294.198 176.688 295.161 176.992 295.667 177.6C296.225 178.157 296.503 179.12 296.503 180.488V183.832C296.503 185.2 296.225 186.188 295.667 186.796C295.161 187.353 294.198 187.632 292.779 187.632H279.479V196.98H299.543C300.962 196.98 301.925 197.284 302.431 197.892C302.938 198.449 303.191 199.412 303.191 200.78V204.276C303.191 205.593 302.938 206.556 302.431 207.164C301.925 207.721 300.962 208 299.543 208H268.079ZM323.885 208C322.416 208 321.377 207.696 320.769 207.088C320.161 206.48 319.857 205.517 319.857 204.2V167.416H308.153C306.735 167.416 305.772 167.137 305.265 166.58C304.759 165.972 304.505 165.009 304.505 163.692V160.12C304.505 158.803 304.759 157.84 305.265 157.232C305.772 156.624 306.735 156.32 308.153 156.32H346.989C348.408 156.32 349.371 156.624 349.877 157.232C350.435 157.84 350.713 158.803 350.713 160.12V163.692C350.713 165.009 350.435 165.972 349.877 166.58C349.371 167.137 348.408 167.416 346.989 167.416H335.285V204.2C335.285 205.517 334.981 206.48 334.373 207.088C333.765 207.696 332.727 208 331.257 208H323.885Z" fill="white"/>
<rect x="194" width="11" height="54" rx="5" fill="#DDE048"/>
<path d="M187 24.2298C187 20.9121 183.892 18.4594 180.775 19.5983C159.317 27.4412 144 48.0375 144 72.2113C144 103.139 169.072 128.211 200 128.211C230.928 128.211 256 103.139 256 72.2113C256 47.6281 240.16 26.7447 218.129 19.2109C215.034 18.1524 212 20.594 212 23.8652V23.8652C212 26.1822 213.567 28.183 215.744 28.976C233.395 35.4052 246 52.3363 246 72.2113C246 97.6164 225.405 118.211 200 118.211C174.595 118.211 154 97.6164 154 72.2113C154 52.6737 166.18 35.9811 183.362 29.3126C185.486 28.4879 187 26.5088 187 24.2298V24.2298Z" fill="#DDE048"/>
</svg>
